<?xml version="1.0" standalone="no"?>
<!DOCTYPE svg PUBLIC "-//W3C//DTD SVG 20010904//EN"
 "http://www.w3.org/TR/2001/REC-SVG-20010904/DTD/svg10.dtd">
<svg version="1.0" xmlns="http://www.w3.org/2000/svg"
 width="512.000000pt" height="512.000000pt" viewBox="0 0 512.000000 512.000000"
 preserveAspectRatio="xMidYMid meet">

<g transform="translate(0.000000,512.000000) scale(0.100000,-0.100000)"
fill="#000000" stroke="none">
<path d="M707 4889 c-103 -24 -197 -103 -244 -204 -23 -50 -27 -73 -27 -141 0
-72 4 -90 33 -148 22 -44 50 -81 86 -113 30 -27 55 -51 55 -55 0 -4 -77 -134
-171 -290 -95 -156 -185 -312 -201 -347 -45 -97 -84 -225 -102 -331 -9 -58
-40 -532 -77 -1210 -68 -1226 -68 -1201 -12 -1351 72 -194 247 -367 440 -434
123 -43 180 -46 709 -43 555 4 536 2 679 76 100 52 220 173 269 272 20 41 43
100 52 130 9 36 25 232 44 580 17 288 35 540 40 560 33 121 151 210 280 210
129 0 247 -89 280 -210 5 -20 23 -272 40 -560 19 -348 35 -544 44 -580 58
-210 228 -385 446 -456 49 -16 106 -18 554 -22 529 -3 586 0 709 43 193 67
368 240 440 434 56 150 56 125 -12 1351 -36 647 -68 1153 -77 1205 -36 214
-80 314 -299 677 -96 159 -175 293 -175 296 0 4 25 28 55 55 36 32 64 69 86
113 29 59 33 76 33 148 0 67 -5 92 -28 142 -34 77 -102 144 -181 181 l-60 28
-272 3 -272 3 -26 -25 c-32 -32 -33 -75 -2 -104 23 -21 31 -22 268 -22 146 0
260 -5 284 -11 57 -16 119 -83 134 -146 26 -105 -39 -216 -141 -241 -33 -9
-223 -12 -649 -12 l-601 0 -78 73 c-143 134 -302 197 -500 197 -198 0 -357
-63 -500 -197 l-78 -73 -603 0 c-406 0 -617 4 -644 11 -107 29 -171 137 -144
245 15 60 79 128 135 143 27 8 483 11 1465 11 l1426 0 21 23 c29 31 28 72 -3
102 l-24 25 -1433 -1 c-792 -1 -1450 -5 -1471 -10z m1996 -444 c195 -51 350
-196 414 -390 26 -77 27 -89 27 -301 l1 -221 -28 -36 c-55 -73 -159 -73 -214
0 l-28 36 -5 216 c-6 244 -13 274 -87 348 -65 65 -123 88 -223 88 -100 0 -158
-23 -223 -88 -74 -74 -81 -104 -87 -348 l-5 -216 -28 -36 c-55 -73 -159 -73
-214 0 l-28 36 1 221 c0 212 1 224 27 301 64 192 218 338 410 390 69 18 219
19 290 0z m-1419 -322 c-36 -451 -285 -832 -675 -1033 -95 -49 -239 -102 -311
-114 l-37 -7 5 73 c15 221 47 357 117 498 34 68 247 426 364 613 l23 37 260 0
259 0 -5 -67z m601 50 c-54 -134 -68 -238 -63 -480 3 -181 4 -190 30 -239 64
-122 205 -189 326 -155 l32 10 0 -130 c0 -116 -2 -129 -17 -129 -36 0 -123
-50 -168 -95 -117 -117 -136 -293 -46 -432 42 -65 119 -124 189 -144 l42 -12
0 -173 c0 -107 -4 -175 -10 -179 -15 -9 -56 -94 -65 -133 -3 -17 -9 -32 -11
-32 -3 0 -28 7 -55 16 -103 34 -233 -3 -320 -89 -60 -60 -84 -116 -83 -203 l0
-71 -43 -17 c-55 -23 -117 -94 -139 -159 -55 -163 14 -338 156 -397 23 -9 30
-18 28 -34 -3 -21 -5 -21 -416 -26 l-414 -5 -19 -24 c-31 -38 -22 -98 18 -117
10 -5 285 -11 611 -14 l593 -5 -32 -65 c-66 -132 -206 -234 -358 -260 -47 -8
-215 -10 -542 -7 -404 3 -482 6 -529 20 -133 40 -255 127 -324 231 -62 93 -72
86 126 86 181 0 231 8 248 40 17 32 11 70 -15 95 -24 25 -24 25 -238 25 -242
0 -227 -5 -227 81 0 48 1 50 22 43 148 -49 317 19 393 157 24 45 29 67 30 127
l2 74 39 17 c144 65 204 274 123 432 -23 45 -101 116 -138 124 -26 6 -27 7
-27 78 1 53 -5 85 -21 118 -46 102 -162 179 -281 187 l-62 4 0 42 c0 55 22
450 25 454 2 2 35 10 75 18 39 8 115 31 170 49 91 32 101 34 131 21 32 -13 33
-15 30 -70 -4 -87 22 -151 88 -217 69 -69 141 -99 237 -99 72 0 113 14 161 54
l32 27 38 -29 c112 -87 280 -67 394 47 66 66 92 130 88 216 l-3 55 52 26 c100
50 146 135 146 269 0 134 -46 219 -146 269 l-52 26 3 55 c4 87 -22 150 -90
216 -56 55 -140 99 -189 99 -24 0 -24 4 -6 100 8 41 18 114 22 163 l7 87 224
0 c210 0 225 -1 218 -17z m1799 -70 c4 -49 14 -122 22 -163 19 -99 19 -97 -23
-103 -59 -10 -142 -58 -188 -109 -52 -58 -77 -127 -74 -203 l3 -55 -52 -26
c-100 -50 -146 -135 -146 -269 0 -134 46 -219 146 -269 l52 -26 -3 -55 c-4
-86 22 -150 88 -216 67 -67 142 -99 230 -99 71 0 115 14 164 52 l37 29 38 -29
c110 -87 275 -67 391 47 68 66 94 129 90 217 -3 55 -2 56 31 70 31 14 39 12
119 -17 47 -17 124 -39 169 -49 46 -10 85 -20 87 -22 3 -4 25 -389 25 -449 l0
-47 -63 -4 c-115 -7 -235 -87 -280 -186 -16 -34 -22 -66 -21 -119 0 -70 -1
-72 -27 -78 -37 -8 -104 -68 -133 -118 -89 -153 -30 -372 118 -438 l40 -18 0
-68 c2 -119 67 -217 185 -275 37 -18 63 -23 131 -23 47 0 95 4 108 8 21 8 22
6 22 -45 0 -29 -4 -59 -8 -66 -7 -10 -165 -12 -758 -10 -740 3 -749 3 -752 23
-2 15 10 27 52 49 127 65 184 231 132 383 -22 65 -84 136 -139 159 l-43 17 1
71 c0 85 -25 143 -86 205 -85 84 -233 125 -323 87 -52 -21 -53 -21 -61 17 -9
38 -50 123 -65 132 -6 4 -10 72 -10 179 l0 173 43 12 c69 20 146 79 188 144
90 139 71 315 -46 432 -45 45 -132 95 -167 95 -16 0 -18 13 -18 129 l0 130 32
-10 c121 -34 262 33 326 155 26 49 27 58 30 239 5 242 -9 346 -63 480 -7 16 8
17 218 17 l224 0 7 -87z m844 -203 c95 -157 191 -322 212 -366 67 -139 100
-279 115 -488 l5 -78 -38 7 c-66 12 -213 65 -295 106 -248 125 -442 320 -562
564 -76 156 -112 287 -130 478 l-7 67 264 -2 263 -3 173 -285z m-1880 113 c65
-49 67 -55 72 -291 5 -175 9 -224 23 -256 14 -32 17 -70 17 -222 l0 -184 -200
0 -200 0 0 184 c0 151 3 190 17 222 14 31 18 83 22 254 4 135 10 222 18 235
16 28 54 62 83 74 37 16 117 7 148 -16z m-1191 -344 c96 -47 121 -159 48 -219
-43 -36 -38 -106 9 -128 12 -5 52 -8 87 -5 59 5 67 3 97 -22 64 -54 67 -172 6
-233 -34 -34 -36 -35 -101 -29 -37 3 -77 0 -89 -5 -47 -22 -52 -92 -9 -128 73
-60 48 -172 -48 -219 -104 -51 -181 -12 -201 101 -8 44 -37 68 -82 68 -39 0
-60 -23 -72 -78 -24 -106 -98 -140 -199 -91 -96 47 -121 159 -48 219 42 35 38
111 -6 125 -10 4 -19 9 -19 13 1 4 26 25 57 47 78 56 203 184 279 285 35 47
90 138 122 202 56 115 58 117 91 118 19 0 54 -9 78 -21z m2339 -25 c25 -66
108 -208 170 -290 65 -86 196 -218 269 -270 30 -22 54 -42 55 -46 0 -4 -9 -9
-19 -13 -44 -14 -48 -90 -6 -125 73 -60 48 -172 -48 -219 -104 -51 -181 -12
-201 101 -8 42 -37 68 -76 68 -39 0 -68 -26 -76 -68 -20 -113 -97 -152 -201
-101 -96 47 -121 159 -48 219 43 36 38 106 -9 128 -12 5 -52 8 -89 5 -65 -6
-67 -5 -101 29 -61 61 -58 179 6 233 30 25 38 27 97 22 35 -3 75 0 87 5 47 22
52 92 9 128 -49 40 -56 113 -16 169 26 37 95 71 143 71 34 0 37 -3 54 -46z
m-861 -756 c69 -38 108 -99 108 -172 1 -64 -25 -120 -76 -160 l-39 -31 -368 0
-368 0 -39 31 c-21 16 -47 48 -58 70 -23 47 -24 127 -2 170 21 41 80 92 115
100 15 3 32 7 37 9 6 2 156 3 335 2 282 -2 329 -4 355 -19z m-175 -629 c0 -92
-2 -101 -17 -94 -114 47 -252 47 -365 0 -16 -7 -18 2 -18 94 l0 101 200 0 200
0 0 -101z m-2415 -118 c69 -32 111 -95 99 -149 -4 -15 -22 -47 -40 -71 -41
-53 -43 -83 -9 -117 24 -24 30 -25 89 -19 107 12 156 -34 156 -148 0 -100 -66
-157 -158 -136 -25 5 -51 5 -66 -1 -48 -18 -62 -83 -25 -116 12 -10 31 -38 41
-62 24 -53 14 -93 -35 -140 -39 -37 -75 -52 -129 -52 -32 0 -47 7 -75 35 -29
29 -33 39 -29 67 3 18 15 228 28 467 17 327 26 437 36 447 19 19 70 17 117 -5z
m4547 5 c10 -10 19 -120 36 -447 13 -239 25 -449 28 -467 4 -28 0 -38 -29 -67
-28 -28 -43 -35 -75 -35 -54 0 -90 15 -129 52 -63 61 -62 124 2 200 59 70 6
140 -91 118 -90 -20 -154 37 -154 138 0 66 19 112 55 136 23 15 40 17 97 12
64 -6 70 -5 93 18 34 34 31 67 -9 115 -55 66 -56 122 -3 180 46 50 149 78 179
47z m-2844 -436 c63 -39 64 -48 42 -432 -11 -188 -20 -358 -20 -375 l0 -33
-125 0 c-69 0 -125 3 -125 8 0 9 28 50 52 76 33 36 22 88 -23 112 -23 11 -37
12 -72 3 -90 -22 -157 37 -157 139 0 113 49 159 156 147 59 -6 65 -5 89 19 34
34 32 66 -9 115 -19 23 -37 54 -41 69 -12 56 30 121 100 153 52 24 92 24 133
-1z m1145 7 c53 -23 96 -65 107 -107 12 -46 2 -79 -40 -127 -37 -41 -38 -76
-5 -109 24 -24 30 -25 89 -19 107 12 156 -34 156 -147 0 -102 -67 -161 -157
-139 -35 9 -49 8 -72 -3 -45 -24 -56 -76 -23 -112 24 -26 52 -67 52 -76 0 -5
-56 -8 -125 -8 l-125 0 0 33 c0 17 -9 186 -20 375 -20 353 -19 374 18 416 33
37 90 46 145 23z m1713 -1023 c-15 -39 -82 -128 -129 -169 -64 -59 -119 -90
-210 -123 l-72 -26 -479 -4 c-329 -2 -501 0 -547 8 -149 25 -287 125 -357 256
-17 34 -32 65 -32 68 0 3 412 6 916 6 831 0 916 -1 910 -16z"/>
</g>
</svg>
