<?xml version="1.0" standalone="no"?>
<!DOCTYPE svg PUBLIC "-//W3C//DTD SVG 20010904//EN"
 "http://www.w3.org/TR/2001/REC-SVG-20010904/DTD/svg10.dtd">
<svg version="1.0" xmlns="http://www.w3.org/2000/svg"
 width="512.000000pt" height="512.000000pt" viewBox="0 0 512.000000 512.000000"
 preserveAspectRatio="xMidYMid meet">

<g transform="translate(0.000000,512.000000) scale(0.100000,-0.100000)"
fill="#000000" stroke="none">
<path d="M510 4865 l0 -255 164 0 164 0 6 -167 c14 -325 61 -542 173 -803 167
-387 481 -759 861 -1017 45 -31 81 -60 80 -64 -2 -3 -48 -37 -103 -74 -339
-229 -600 -521 -779 -874 -151 -299 -216 -559 -231 -934 l-7 -167 -164 0 -164
0 0 -255 0 -255 2050 0 2050 0 0 255 0 255 -163 0 -164 0 -11 212 c-13 238
-38 385 -99 572 -150 464 -489 902 -930 1203 -46 31 -83 59 -83 63 0 3 31 25
70 48 268 166 530 422 702 687 131 201 250 491 297 720 27 136 39 241 47 433
l7 162 163 0 164 0 0 255 0 255 -2050 0 -2050 0 0 -255z m3247 -447 c-8 -285
-54 -467 -179 -709 -183 -356 -536 -669 -945 -838 l-73 -30 -62 25 c-500 204
-891 598 -1052 1062 -60 173 -77 273 -83 490 l-6 192 1203 0 1203 0 -6 -192z
m-1136 -2164 c500 -202 892 -598 1053 -1062 60 -173 77 -273 83 -489 l6 -193
-1203 0 -1203 0 6 188 c6 210 24 313 83 483 161 463 528 843 1024 1061 47 20
85 37 86 37 0 1 29 -11 65 -25z"/>
</g>
</svg>
