<svg id="SvgjsSvg1001" width="288" height="288" xmlns="http://www.w3.org/2000/svg" version="1.1" xmlns:xlink="http://www.w3.org/1999/xlink" xmlns:svgjs="http://svgjs.com/svgjs"><defs id="SvgjsDefs1002"></defs><g id="SvgjsG1008"><svg xmlns="http://www.w3.org/2000/svg" width="288" height="288" version="1.0" viewBox="0 0 96 96"><path d="M212 828 c-29 -29 -6 -68 40 -68 27 0 28 -2 28 -45 0 -65 23 -112 88-177 l56 -58 -56 -57 c-65 -66 -88 -113 -88 -177 0 -43 -1 -45 -31 -48 -39 -4
-59 -30 -43 -55 10 -16 35 -18 274 -18 239 0 264 2 274 17 16 26 -4 52 -43 56
-30 3 -31 5 -31 48 0 64 -23 111 -88 177 l-56 57 56 58 c65 65 88 112 88 176
0 43 1 45 31 48 39 4 59 30 43 56 -10 15 -36 17 -270 20 -194 2 -263 -1 -272
-10z m388 -108 c0 -52 -17 -84 -74 -140 l-46 -44 -46 44 c-57 56 -74 88 -74
140 l0 40 120 0 120 0 0 -40z m-68 -347 c57 -60 68 -81 68 -132 0 -53 -24 -55
-73 -6 -19 19 -40 35 -47 35 -7 0 -28 -16 -47 -35 -49 -49 -73 -47 -73 6 0 22
5 50 11 62 12 23 99 117 109 117 3 0 26 -21 52 -47z" transform="matrix(.1 0 0 -.1 0 96)" fill="#414047" class="color000 svgShape"></path></svg></g></svg>