<?xml version="1.0" standalone="no"?>
<!DOCTYPE svg PUBLIC "-//W3C//DTD SVG 20010904//EN"
 "http://www.w3.org/TR/2001/REC-SVG-20010904/DTD/svg10.dtd">
<svg version="1.0" xmlns="http://www.w3.org/2000/svg"
 width="512.000000pt" height="512.000000pt" viewBox="0 0 512.000000 512.000000"
 preserveAspectRatio="xMidYMid meet">

<g transform="translate(0.000000,512.000000) scale(0.100000,-0.100000)"
fill="#000000" stroke="none">
<path d="M2550 5104 c-222 -48 -408 -237 -456 -464 -39 -183 17 -382 147 -524
66 -73 145 -124 249 -160 74 -26 99 -30 190 -30 88 0 118 5 185 28 239 82 393
281 411 530 21 288 -186 561 -471 621 -86 18 -169 18 -255 -1z"/>
<path d="M1083 4436 c-200 -51 -365 -224 -404 -424 -63 -326 193 -635 526
-636 161 0 297 60 405 182 187 209 180 527 -17 726 -63 64 -134 110 -208 136
-76 27 -229 35 -302 16z"/>
<path d="M4074 4072 c-98 -46 -131 -165 -71 -258 32 -50 114 -89 170 -80 88
14 157 93 157 180 0 49 -32 109 -76 142 -47 36 -122 43 -180 16z"/>
<path d="M535 2913 c-212 -33 -372 -191 -406 -401 -37 -228 108 -461 329 -528
81 -25 220 -22 294 4 198 71 321 245 321 452 0 254 -188 456 -440 473 -38 3
-81 3 -98 0z"/>
<path d="M4700 2671 c-110 -34 -175 -119 -174 -231 1 -139 97 -234 234 -234
204 0 313 231 181 385 -60 71 -161 104 -241 80z"/>
<path d="M1131 1379 c-74 -14 -164 -63 -217 -116 -163 -167 -163 -423 0 -586
63 -64 109 -90 193 -112 236 -62 474 97 514 344 35 218 -124 435 -346 471 -68
11 -83 11 -144 -1z"/>
<path d="M4087 1260 c-159 -40 -259 -192 -227 -347 49 -235 332 -322 500 -153
115 114 118 298 7 413 -74 75 -186 110 -280 87z"/>
<path d="M2610 709 c-225 -46 -349 -287 -255 -496 34 -75 103 -145 178 -179
53 -24 75 -28 147 -28 108 0 187 32 256 106 207 222 76 572 -226 601 -30 3
-75 2 -100 -4z"/>
</g>
</svg>
