<svg id="SvgjsSvg1013" width="288" height="288" xmlns="http://www.w3.org/2000/svg" version="1.1" xmlns:xlink="http://www.w3.org/1999/xlink" xmlns:svgjs="http://svgjs.com/svgjs"><defs id="SvgjsDefs1014"></defs><g id="SvgjsG1015"><svg xmlns="http://www.w3.org/2000/svg" width="288" height="288" version="1.0" viewBox="0 0 512 512"><g transform="matrix(.1 0 0 -.1 0 512)" fill="#3b3a3d" class="color000 svgShape"><path d="M2550 5104c-222-48-408-237-456-464-39-183 17-382 147-524 66-73 145-124 249-160 74-26 99-30 190-30 88 0 118 5 185 28 239 82 393 281 411 530 21 288-186 561-471 621-86 18-169 18-255-1zM1083 4436c-200-51-365-224-404-424-63-326 193-635 526-636 161 0 297 60 405 182 187 209 180 527-17 726-63 64-134 110-208 136-76 27-229 35-302 16zM4074 4072c-98-46-131-165-71-258 32-50 114-89 170-80 88 14 157 93 157 180 0 49-32 109-76 142-47 36-122 43-180 16zM535 2913c-212-33-372-191-406-401-37-228 108-461 329-528 81-25 220-22 294 4 198 71 321 245 321 452 0 254-188 456-440 473-38 3-81 3-98 0zM4700 2671c-110-34-175-119-174-231 1-139 97-234 234-234 204 0 313 231 181 385-60 71-161 104-241 80zM1131 1379c-74-14-164-63-217-116-163-167-163-423 0-586 63-64 109-90 193-112 236-62 474 97 514 344 35 218-124 435-346 471-68 11-83 11-144-1zM4087 1260c-159-40-259-192-227-347 49-235 332-322 500-153 115 114 118 298 7 413-74 75-186 110-280 87zM2610 709c-225-46-349-287-255-496 34-75 103-145 178-179 53-24 75-28 147-28 108 0 187 32 256 106 207 222 76 572-226 601-30 3-75 2-100-4z" fill="#3b3a3d" class="color000 svgShape"></path></g></svg></g></svg>