<svg id="SvgjsSvg1001" width="288" height="288" xmlns="http://www.w3.org/2000/svg" version="1.1" xmlns:xlink="http://www.w3.org/1999/xlink" xmlns:svgjs="http://svgjs.com/svgjs"><defs id="SvgjsDefs1002"></defs><g id="SvgjsG1008"><svg xmlns="http://www.w3.org/2000/svg" width="288" height="288" version="1.0" viewBox="0 0 100 100"><path d="M507 953 c-14 -14 -5 -23 43 -48 68 -34 126 -95 159 -164 22 -47 26-70 26 -141 0 -103 -27 -170 -96 -239 -69 -69 -136 -96 -239 -96 -71 0 -94 4
-141 26 -69 33 -130 91 -164 159 -41 80 -66 60 -46 -38 47 -240 283 -404 523
-364 195 33 347 185 380 379 39 232 -109 458 -337 518 -64 16 -98 19 -108 8z
m258 -131 c139 -114 190 -304 126 -472 -93 -244 -387 -343 -611 -206 -59 36
-142 130 -160 179 l-10 31 27 -26 c113 -105 261 -133 408 -77 83 31 173 121
204 204 55 145 30 285 -72 402 l-29 33 30 -11 c16 -5 55 -31 87 -57z" transform="matrix(.1 0 0 -.1 0 100)" fill="#ffffff" class="color000 svgShape"></path></svg></g></svg>