<svg id="SvgjsSvg1001" width="288" height="288" xmlns="http://www.w3.org/2000/svg" version="1.1" xmlns:xlink="http://www.w3.org/1999/xlink" xmlns:svgjs="http://svgjs.com/svgjs"><defs id="SvgjsDefs1002"></defs><g id="SvgjsG1008"><svg xmlns="http://www.w3.org/2000/svg" enable-background="new 0 0 512 512" viewBox="0 0 512 512" width="288" height="288"><path d="m404.2,254.2h-35.8c-18.7-61.6-71.8-104.8-131.7-104.8-16.1,0-31.9,3-46.9,9-16.7,6.6-32.1,16.8-45.3,29.7-6-38.9 6.3-79.4 34.7-108.3 6-6.1 7.6-15.3 3.9-23.1-3.7-7.7-11.7-12.3-20.3-11.6-19.5,1.8-38.4,7-56.2,15.5-40.4,19.2-70.9,52.9-85.9,95-15,42.1-12.7,87.5 6.5,127.9 7.8,16.4 18.1,31.1 30.3,43.8-3.2,10.7-4.8,21.8-4.8,33.1 0,58.6 43.4,106.3 96.8,106.3h254.7c53.4,0 96.8-47.7 96.8-106.3 5.68434e-14-58.5-43.4-106.2-96.8-106.2zm-345-84.8c10.3-29 30.4-52.7 56.9-67.7-18.9,43.5-18.9,94.2 2.2,138.7 20.9,44.1 60.2,76.3 106.1,89.3-14.7,5.8-30.1,8.7-45.9,8.7-48.6,0-93.5-28.4-114.4-72.3-14.4-30.5-16.2-64.8-4.9-96.7zm345,256.6h-254.7c-30.9,0-56-29.4-56-65.5 0-1.5 0.1-3 0.2-4.6 25.3,14.9 54.5,23.2 84.8,23.2 24.9,0 49-5.5 71.7-16.2 17.8-8.5 33.8-19.8 47.5-33.8 6-6.1 7.6-15.3 3.9-23.1-3.7-7.7-11.8-12.4-20.3-11.6-49,4.5-96.4-20.4-120.9-62.1 0.2-0.2 0.3-0.4 0.5-0.6 11.6-16.4 26.8-28.6 44.1-35.4 10.2-4 20.9-6.1 31.8-6.1 45.5,0 85.8,37.1 95.7,88.2 1.9,9.6 10.3,16.5 20,16.5h51.7c30.9,0 56,29.4 56,65.5 5.68434e-14,36.3-25.1,65.6-56,65.6z" fill="#ffffff" class="color000 svgShape"></path></svg></g></svg>